<svg width="1024" height="1024" viewBox="0 0 1024 1024" fill="none" xmlns="http://www.w3.org/2000/svg">
<g clip-path="url(#clip0_501_16)">
<path d="M975.187 659.033C919.517 822.902 742.352 911.394 579.478 856.704C519.933 836.71 470.543 800.34 434.559 754.213C412.805 726.351 395.932 694.903 384.698 661.334C363.719 598.687 362.361 528.673 385.358 460.98C394.166 435.051 406.015 411.028 420.387 389.137C443.501 353.872 473.155 324.208 507.024 301.257C531.199 325.475 549.01 355.256 559.062 387.728C550.438 393.862 542.266 400.639 534.578 408.043C510.875 430.908 492.089 459.646 480.754 493.012C465.755 537.162 466.066 582.744 478.814 623.939C488.881 656.438 506.69 686.218 530.832 710.403C547.337 726.957 566.81 740.916 588.8 751.358C596.273 754.894 604.043 758.04 612.079 760.738C642.288 770.882 673.236 773.738 702.991 770.264C781.821 761.08 852.453 707.47 879.79 627.003C917.45 516.145 858.658 396.302 748.457 359.298C716.769 348.658 684.263 346.027 653.157 350.328C641.936 316.786 625.086 285.345 603.316 257.456C660.055 242.488 721.512 243.336 781.057 263.33C943.932 318.018 1030.85 495.186 975.187 659.033Z" fill="#F9EFAA"/>
<path d="M638.602 562.678C623.34 607.604 598.929 646.891 568.164 679.075C552.594 695.407 535.378 709.902 516.915 722.394C492.773 698.212 474.964 668.432 464.898 635.93C482.05 623.746 497.508 608.963 510.544 591.897C510.551 591.877 510.551 591.877 510.551 591.877C524.373 573.86 535.5 553.33 543.205 530.648C558.204 486.498 557.914 440.922 545.145 399.721C535.093 367.249 517.282 337.469 493.107 313.251C471.016 291.086 443.561 273.585 411.874 262.945C301.674 225.942 181.811 285.794 144.15 396.653C106.488 507.512 165.297 627.381 275.496 664.384C307.184 675.024 339.697 677.635 370.782 673.325C382.015 706.894 398.888 738.343 420.643 766.204C363.896 781.194 302.439 780.344 242.894 760.35C79.9979 705.652 -6.91773 528.487 48.7521 364.619C104.414 200.772 281.579 112.28 444.476 166.977C504.021 186.971 553.41 223.342 589.401 269.448C611.171 297.337 628.021 328.78 639.242 362.32C660.253 425.001 661.598 494.987 638.602 562.678Z" fill="#F9EFAA"/>
<path d="M544.244 391.19C535.572 397.286 527.356 404.022 519.624 411.382C512.115 407.861 504.307 404.727 496.231 402.038C465.872 391.931 434.774 389.052 404.858 392.51C428.109 357.447 457.929 327.959 491.982 305.15C516.269 329.253 534.154 358.885 544.244 391.19Z" fill="#E5DB9E"/>
<path d="M582.537 675.661C567.01 692.039 549.84 706.575 531.426 719.104C507.333 694.876 489.555 665.034 479.501 632.461C496.608 620.241 512.024 605.416 525.023 588.305C525.064 589.348 527.469 657.109 582.537 675.661Z" fill="#E5DB9E"/>
<path d="M831.774 822.491C759.969 863.931 676.539 874.192 596.859 851.382C539.97 835.097 489.56 802.918 451.068 758.312C428.514 732.203 410.684 702.663 398.075 670.511C373.615 608.182 370.449 541.134 388.921 476.609C402.458 429.321 427.503 385.678 461.342 350.395C467.818 343.642 467.596 332.917 460.842 326.438C454.085 319.954 443.364 320.184 436.883 326.938C399.241 366.181 371.389 414.712 356.34 467.282C335.803 539.021 339.326 613.577 366.527 682.886C377.289 710.326 391.503 736.032 408.856 759.634C359.896 770.474 309.014 768.98 260.268 755.026C99.6093 709.034 6.31956 540.908 52.3121 380.248C76.7827 294.768 137.28 224.602 218.298 187.744C226.816 183.869 230.578 173.824 226.704 165.307C222.828 156.791 212.782 153.025 204.269 156.902C114.201 197.878 46.9428 275.886 19.7366 370.922C-31.3986 549.547 72.3228 736.47 250.946 787.604C310.657 804.698 373.268 805.006 432.735 788.633C474.533 833.995 527.818 866.865 587.529 883.959C676.119 909.319 768.874 897.913 848.706 851.836C856.813 847.159 859.591 836.797 854.911 828.692C850.239 820.589 839.873 817.813 831.774 822.491Z" fill="black"/>
<path d="M773.001 236.092C713.303 219.002 650.692 218.689 591.217 235.046C549.408 189.694 496.115 156.828 436.417 139.738C381.467 124.007 323.166 122.477 267.819 135.312C258.703 137.425 253.028 146.53 255.141 155.644C257.254 164.76 266.354 170.433 275.473 168.321C325.232 156.784 377.659 158.164 427.091 172.315C483.967 188.597 534.385 220.772 572.887 265.358C595.433 291.471 613.256 321.007 625.863 353.163C650.34 415.473 653.51 482.525 635.035 547.065C622.68 590.221 601.58 629.118 572.323 662.674C566.172 669.728 566.904 680.428 573.957 686.579C575.892 688.264 578.099 689.435 580.418 690.099C586.54 691.852 593.402 690.061 597.862 684.945C630.413 647.614 653.879 604.362 667.611 556.393C688.154 484.635 684.623 410.076 657.404 340.783C646.65 313.354 632.445 287.652 615.097 264.048C664.063 253.218 714.943 254.719 763.679 268.671C924.33 314.661 1017.61 482.771 971.62 643.421C955.061 701.262 922.16 752.308 876.473 791.036C869.336 797.088 868.454 807.778 874.506 814.915C876.752 817.568 879.642 819.356 882.751 820.246C888.01 821.751 893.898 820.685 898.386 816.885C949.198 773.806 985.786 717.047 1004.19 652.743C1055.33 474.131 951.612 287.224 773.001 236.092Z" fill="black"/>
<path d="M562.947 383.544C549.987 348.158 528.424 316.083 500.596 290.798C473.982 266.576 442.805 249.234 407.928 239.25C284.177 203.823 154.674 275.673 119.251 399.412C83.824 523.165 155.681 652.669 279.436 688.096C296.922 693.102 314.922 696.062 332.939 696.901C342.285 697.334 350.214 690.109 350.651 680.762C351.082 671.414 343.861 663.495 334.512 663.051C319.116 662.336 303.725 659.802 288.762 655.519C182.972 625.234 121.544 514.529 151.828 408.738C182.11 302.959 292.812 241.542 398.602 271.827C428.421 280.363 455.064 295.178 477.797 315.87C498.686 334.852 515.443 358.303 526.726 384.219C492.777 413.781 468.366 452.086 455.86 495.774C442.165 543.612 443.947 593.53 461.01 640.136C473.982 675.541 495.538 707.614 523.343 732.876C550.001 757.126 581.184 774.476 616.023 784.449C739.766 819.873 869.256 748.012 904.683 624.257C940.108 500.514 868.254 371.026 744.515 335.603C727.031 330.598 709.033 327.634 691.019 326.787C681.673 326.348 673.742 333.573 673.303 342.919C672.864 352.265 680.09 360.196 689.434 360.636C704.829 361.359 720.224 363.896 735.189 368.18C840.966 398.461 902.389 509.154 872.108 614.932C841.823 720.722 731.128 782.153 625.349 751.872C595.563 743.345 568.914 728.518 546.136 707.803C525.269 688.842 508.519 665.393 497.231 639.465C531.174 609.925 555.582 571.622 568.097 527.906C581.799 480.032 580.02 430.111 562.947 383.544ZM538.356 419.707C545.76 452.211 544.862 485.945 535.52 518.578C526.178 551.209 509.09 580.31 485.606 603.973C478.203 571.449 479.098 537.715 488.435 505.099C497.772 472.483 514.864 443.386 538.356 419.707Z" fill="black"/>
</g>
<defs>
<clipPath id="clip0_501_16">
<rect width="1024" height="1024" fill="white"/>
</clipPath>
</defs>
</svg>
